<?xml version="1.0" encoding="iso-8859-1"?>
<!-- Uploaded to: SVG Repo, www.svgrepo.com, Generator: SVG Repo Mixer Tools -->
<!DOCTYPE svg PUBLIC "-//W3C//DTD SVG 1.1//EN" "http://www.w3.org/Graphics/SVG/1.1/DTD/svg11.dtd">
<svg fill="#000000" version="1.1" id="Capa_1" xmlns="http://www.w3.org/2000/svg" xmlns:xlink="http://www.w3.org/1999/xlink" 
	 width="800px" height="800px" viewBox="0 0 548.791 548.791"
	 xml:space="preserve">
<g>
	<g>
		<path d="M122.983,59.272c-11.561-6.608-26.086-10.251-40.908-10.251c-16.438,0-31.948,4.379-43.653,12.345
			C13.196,78.512,0,120.855,0,153.817v181.152c0,35.82,18.044,82.936,41.96,109.576l6.579,7.344
			c24.499,27.293,70.638,47.881,107.32,47.881h315.342c43.51,0,77.59-26.709,77.59-60.809c0-32.531-29.154-68.449-56.59-85.729
			l-29.932-18.838c-19.439-12.25-39.809-41.387-43.584-62.366c-6.246-34.741-28.688-70.762-52.213-83.777
			c-11.848-6.56-26.029-10.175-39.941-10.175c-15.416,0-29.377,4.456-39.293,12.565c-14.879,12.135-31.9,36.06-39.579,55.634
			c-4.657,11.867-20.817,38.585-36.557,57.968c-6.923,8.502-17.681,11.705-23.371,6.445c-10.098-9.324-21.391-38.221-21.391-62.95
			v-96.151C166.34,118.837,151.145,75.356,122.983,59.272z M151.46,279l-9.266,2.391c-2.974-11.542-4.552-23.18-4.552-33.642
			v-15.673h9.562v15.673C147.215,257.426,148.678,268.232,151.46,279z M145.799,134.415c0.938,5.814,1.406,11.59,1.406,17.174
			v32.005h-9.562v-32.005c0-5.078-0.43-10.337-1.291-15.654L145.799,134.415z M82.084,68.146c11.552,0,22.711,2.744,31.422,7.726
			c4.619,2.64,9.065,6.637,13.187,11.887l-7.516,5.909c-3.366-4.274-6.866-7.468-10.414-9.495
			c-7.296-4.169-16.763-6.464-26.68-6.464L80,77.738l-0.296-9.553L82.084,68.146z M35.314,92.731l8.157,4.982
			c-7.028,11.504-12.288,27.913-14.085,43.873l-9.505-1.062C21.851,122.978,27.473,105.564,35.314,92.731z M19.125,189.523h9.562
			v48.482h-9.562V189.523z M19.125,286.486h9.562v48.482h-9.562V286.486z M47.42,420.467c-8.539-12.574-16.084-28.543-21.257-44.963
			l9.123-2.869c4.896,15.559,12.011,30.639,20.043,42.459L47.42,420.467z M128.052,476.617
			c-15.807-4.254-31.929-11.58-45.403-20.615l5.336-7.938c12.622,8.473,27.731,15.338,42.553,19.326L128.052,476.617z
			 M225.924,480.654h-48.482v-9.562h48.482V480.654z M322.887,480.654h-48.481v-9.562h48.481V480.654z M419.852,480.654h-48.482
			v-9.562h48.482V480.654z M471.211,480.654c-0.01,0-0.02,0-0.02,0h-2.85v-9.562h2.85c0,0,0.01,0,0.02,0
			c15.512,0,29.787-4.754,39.188-13.045l6.32,7.172C505.598,475.021,489.008,480.654,471.211,480.654z M491.857,376.471
			c13.416,10.758,24.957,24.977,31.67,39.023l-8.625,4.121c-6.109-12.785-16.686-25.789-29.012-35.678L491.857,376.471z
			 M418.398,316.656c9.59,13.934,21.113,25.705,32.445,33.145l-5.25,7.994c-12.346-8.109-24.805-20.789-35.076-35.707
			L418.398,316.656z M380.357,228.204c9.324,13.846,16.361,30.705,19.316,46.244l-9.391,1.789
			c-2.725-14.325-9.227-29.883-17.852-42.688L380.357,228.204z M299.326,205.464c9.008-7.344,24.604-10.041,39.941-6.971
			l-1.873,9.381c-12.441-2.486-25.312-0.478-32.025,5.011c-2.295,1.865-4.762,4.236-7.354,7.067l-7.057-6.464
			C293.865,210.312,296.676,207.615,299.326,205.464z M292.164,263.747c4.656-11.867,16.715-29.051,25.291-36.05
			c0.613-0.469,3.586-1.798,9.076-1.798c5.861,0,11.98,1.521,16.781,4.188c8.721,4.829,24.078,26.861,28.314,50.422
			c6.168,34.281,34.178,74.846,65.16,94.363l29.92,18.838c20.598,12.967,34.254,35.84,34.254,45.27
			c0,3.338-10.242,12.994-29.777,12.994H155.85c-22.912,0-56.428-14.955-71.728-31.996l-6.589-7.344
			c-15.835-17.652-29.729-53.932-29.729-77.656V153.826c0-25.446,11.322-48.721,17.49-52.909c2.897-1.97,8.826-4.074,16.782-4.074
			c6.531,0,12.794,1.435,17.184,3.949c7.669,4.38,19.259,26.88,19.259,50.806v96.161c0,36.567,15.807,78.728,36.768,98.073
			c10.681,9.859,24.681,15.291,39.445,15.291c20.177,0,39.665-9.744,53.464-26.719C265.818,312.727,285.125,281.695,292.164,263.747
			z M264.46,255.686l8.778,3.796c-4.781,11.025-14.066,26.977-24.862,42.658l-7.879-5.422
			C250.805,281.754,259.995,266.033,264.46,255.686z M170.939,320.711c1.243,1.492,2.515,2.84,3.806,4.035
			c8.893,8.195,22.166,9.906,34.396,4.562l3.825,8.768c-5.948,2.592-12.087,3.912-18.236,3.912c-10.079,0-19.23-3.529-26.469-10.213
			c-1.587-1.463-3.146-3.117-4.667-4.936L170.939,320.711z"/>
	</g>
</g>
</svg>