<?xml version="1.0" encoding="iso-8859-1"?>
<!-- Uploaded to: SVG Repo, www.svgrepo.com, Generator: SVG Repo Mixer Tools -->
<svg height="800px" width="800px" version="1.1" id="Layer_1" xmlns="http://www.w3.org/2000/svg" xmlns:xlink="http://www.w3.org/1999/xlink" 
	 viewBox="0 0 511.983 511.983" xml:space="preserve">
<path style="fill:#ED5564;" d="M424.584,473.686c-0.656-0.922-16.812-22.826-45.467-44.826
	c-38.186-29.357-80.654-44.873-122.801-44.873c-42.131,0-84.7,15.5-123.113,44.857c-28.788,22-45.108,43.873-45.788,44.795
	c-1.352,1.844-2.086,4.062-2.086,6.344v21.328c0,3.094,1.336,6.031,3.672,8.047c2.328,2.031,5.422,2.953,8.484,2.516
	c0.633-0.094,64.482-8.922,158.831-8.922c94.332,0,157.549,8.828,158.174,8.922c0.5,0.078,1,0.109,1.5,0.109
	c2.547,0,5.031-0.922,6.984-2.609c2.328-2.031,3.672-4.969,3.672-8.062v-21.328C426.646,477.718,425.928,475.514,424.584,473.686z"
	/>
<path style="fill:#434A54;" d="M426.099,476.608l-21.328-63.998c-0.875-2.625-2.75-4.812-5.201-6.094
	c-1.766-0.922-44.516-22.529-143.254-22.529c-98.7,0-142.05,21.576-143.847,22.498c-2.484,1.266-4.375,3.469-5.258,6.125
	l-21.335,63.998c-1.164,3.5-0.438,7.359,1.922,10.203c2.367,2.828,6.031,4.25,9.688,3.734c0.633-0.094,64.482-8.922,158.831-8.922
	c94.332,0,157.549,8.828,158.174,8.922c0.5,0.062,1,0.094,1.5,0.094c3.125,0,6.141-1.375,8.188-3.828
	C426.553,483.968,427.271,480.108,426.099,476.608z"/>
<path style="fill:#656D78;" d="M192.646,270.764v155.877c0,0,12.047,21.344,63.342,21.344c51.303,0,64.006-21.344,64.006-21.344
	V270.038L192.646,270.764z"/>
<path d="M263.535,210.203c-4.164,4.164-10.914,4.164-15.078,0c-4.172-4.164-4.172-10.921,0-15.085
	c4.164-4.164,10.914-4.164,15.078,0C267.707,199.282,267.707,206.039,263.535,210.203z"/>
<path style="fill:#434A54;" d="M410.006,159.174c0,0-58.014-42.663-154.01-42.663c-95.997,0-154.011,42.663-154.011,42.663
	l-4.679,64.818c0,0,126.691,10.663,126.691,136.276h63.997c0-125.613,126.684-136.276,126.684-136.276L410.006,159.174z"/>
<path style="fill:#ED5564;" d="M298.65,202.657c0,23.57-19.092,42.67-42.654,42.67c-23.562,0-42.663-19.101-42.663-42.67
	c0-23.562,19.101-42.663,42.663-42.663S298.65,179.095,298.65,202.657z"/>
<g>
	<circle style="fill:#656D78;" cx="160.002" cy="191.991" r="21.335"/>
	<path style="fill:#656D78;" d="M373.336,191.993c0,11.781-9.562,21.335-21.344,21.335c-11.779,0-21.342-9.554-21.342-21.335
		c0-11.781,9.562-21.335,21.342-21.335C363.773,170.658,373.336,180.212,373.336,191.993z"/>
</g>
<g style="opacity:0.2;">
	<path d="M266.66,298.645h-21.328c-5.891,0-10.671-4.766-10.671-10.656c0-5.889,4.781-10.67,10.671-10.67h21.328
		c5.898,0,10.68,4.781,10.68,10.67C277.34,293.88,272.558,298.645,266.66,298.645z"/>
</g>
<path style="fill:#ED5564;" d="M399.304,59.357C361.023,21.077,310.118,0,255.995,0c-54.131,0-105.028,21.078-143.3,59.357
	c-38.28,38.28-59.358,89.169-59.358,143.3s21.078,105.02,59.358,143.301c38.272,38.279,89.169,59.355,143.3,59.355
	c54.123,0,105.027-21.076,143.309-59.355c38.279-38.281,59.342-89.169,59.342-143.301S437.584,97.637,399.304,59.357z
	 M255.996,351.987c-39.889,0-77.388-15.529-105.59-43.748c-28.202-28.201-43.741-65.693-43.741-105.582
	c0-39.881,15.539-77.38,43.741-105.59c28.202-28.202,65.701-43.733,105.59-43.733s77.389,15.531,105.59,43.733
	c28.203,28.21,43.748,65.709,43.748,105.59c0,39.889-15.545,77.381-43.748,105.582C333.385,336.458,295.885,351.987,255.996,351.987
	z"/>
</svg>